<?xml version="1.0" standalone="no"?>
<!DOCTYPE svg PUBLIC "-//W3C//DTD SVG 20010904//EN"
 "http://www.w3.org/TR/2001/REC-SVG-20010904/DTD/svg10.dtd">
<svg version="1.0" xmlns="http://www.w3.org/2000/svg"
 width="50.000000pt" height="50.000000pt" viewBox="0 0 50.000000 50.000000"
 preserveAspectRatio="xMidYMid meet">

<g transform="translate(0.000000,50.000000) scale(0.100000,-0.100000)"
fill="#000000" stroke="none">
<path d="M77 483 c-4 -3 -7 -23 -7 -44 0 -20 -11 -61 -25 -91 -15 -32 -25 -71
-25 -98 0 -49 29 -122 63 -159 33 -36 115 -71 167 -71 52 0 134 35 167 71 34
37 63 110 63 159 0 52 -35 134 -71 167 -62 57 -165 78 -237 47 -35 -14 -38
-14 -51 5 -13 21 -32 27 -44 14z m33 -47 l0 -23 47 23 c211 107 408 -169 237
-333 -96 -93 -245 -77 -321 36 -39 58 -42 187 -4 199 10 3 12 0 7 -14 -38 -95
5 -203 99 -245 49 -23 94 -24 143 -4 157 66 161 275 7 346 -53 24 -100 23
-155 -3 -41 -20 -43 -22 -20 -26 50 -8 44 -22 -8 -22 l-52 0 0 51 c0 31 4 48
10 44 6 -3 10 -17 10 -29z m152 -101 c0 -41 1 -78 2 -83 2 -12 -84 -86 -91
-79 -3 4 11 25 31 47 35 39 36 43 36 115 0 99 20 99 22 0z"/>
</g>
</svg>
