<?xml version="1.0" standalone="no"?>
<!DOCTYPE svg PUBLIC "-//W3C//DTD SVG 20010904//EN"
 "http://www.w3.org/TR/2001/REC-SVG-20010904/DTD/svg10.dtd">
<svg version="1.0" xmlns="http://www.w3.org/2000/svg"
 width="64.000000pt" height="64.000000pt" viewBox="0 0 64.000000 64.000000"
 preserveAspectRatio="xMidYMid meet">

<g transform="translate(0.000000,64.000000) scale(0.100000,-0.100000)"
fill="#000000" stroke="none">
<path d="M162 484 c-84 -69 -150 -130 -147 -135 16 -25 58 -2 178 96 l127 105
127 -105 c119 -98 162 -121 178 -96 3 5 -15 26 -40 46 -45 37 -45 38 -45 101
l0 64 -44 0 c-40 0 -45 -3 -48 -25 -3 -25 -4 -25 -65 25 -34 27 -63 50 -65 49
-2 0 -72 -56 -156 -125z"/>
<path d="M198 414 l-118 -95 0 -119 0 -120 240 0 240 0 0 104 0 104 -119 111
c-65 61 -120 111 -122 110 -2 0 -57 -43 -121 -95z m182 -204 l0 -90 -60 0 -60
0 0 90 0 90 60 0 60 0 0 -90z"/>
</g>
</svg>
