<?xml version="1.0" standalone="no"?>
<!DOCTYPE svg PUBLIC "-//W3C//DTD SVG 20010904//EN"
 "http://www.w3.org/TR/2001/REC-SVG-20010904/DTD/svg10.dtd">
<svg version="1.0" xmlns="http://www.w3.org/2000/svg"
 width="64.000000pt" height="64.000000pt" viewBox="0 0 64.000000 64.000000"
 preserveAspectRatio="xMidYMid meet">

<g transform="translate(0.000000,64.000000) scale(0.100000,-0.100000)"
fill="#000000" stroke="none">
<path d="M114 476 c-3 -8 -4 -27 -2 -43 3 -25 7 -28 37 -28 43 0 60 23 43 59
-9 20 -19 26 -42 26 -17 0 -33 -6 -36 -14z"/>
<path d="M249 464 c-9 -11 -10 -20 -2 -32 9 -15 30 -17 144 -17 134 0 134 0
137 24 2 13 -2 28 -10 32 -7 5 -68 9 -134 9 -99 0 -124 -3 -135 -16z"/>
<path d="M110 320 c0 -40 0 -40 39 -40 43 0 59 21 46 60 -5 16 -15 20 -46 20
-39 0 -39 0 -39 -40z"/>
<path d="M258 349 c-24 -13 -23 -46 1 -59 11 -5 68 -10 126 -10 113 0 145 9
145 40 0 11 -9 24 -19 30 -25 13 -230 13 -253 -1z"/>
<path d="M114 226 c-3 -8 -4 -27 -2 -43 3 -25 7 -28 38 -28 28 0 36 5 44 27 7
19 6 31 -4 42 -16 20 -69 21 -76 2z"/>
<path d="M250 214 c-10 -11 -11 -20 -3 -32 8 -14 31 -18 124 -20 145 -4 161 0
157 36 l-3 27 -131 3 c-111 2 -133 0 -144 -14z"/>
</g>
</svg>
