<?xml version="1.0" standalone="no"?>
<!DOCTYPE svg PUBLIC "-//W3C//DTD SVG 20010904//EN"
 "http://www.w3.org/TR/2001/REC-SVG-20010904/DTD/svg10.dtd">
<svg version="1.0" xmlns="http://www.w3.org/2000/svg"
 width="50.000000pt" height="50.000000pt" viewBox="0 0 50.000000 50.000000"
 preserveAspectRatio="xMidYMid meet">

<g transform="translate(0.000000,50.000000) scale(0.100000,-0.100000)"
fill="#000000" stroke="none">
<path d="M210 456 c0 -24 -26 -60 -39 -54 -62 33 -61 33 -84 10 -21 -21 -21
-23 -4 -51 9 -16 17 -31 17 -34 0 -15 -34 -37 -56 -37 -23 0 -25 -3 -22 -37 3
-32 7 -38 34 -45 40 -10 48 -30 26 -68 -16 -28 -16 -30 5 -52 22 -22 24 -22
52 -5 16 9 31 17 34 17 15 0 37 -34 37 -56 0 -23 3 -25 37 -22 32 3 38 7 45
34 10 40 32 49 69 27 28 -17 30 -17 52 5 21 22 21 24 5 52 -22 38 -14 58 26
68 27 7 31 13 34 45 3 34 1 37 -22 37 -22 0 -56 22 -56 37 0 3 8 18 17 34 17
28 17 30 -5 52 -22 21 -24 21 -52 5 -38 -22 -58 -14 -68 26 -7 27 -13 31 -45
34 -34 3 -37 1 -37 -22z m87 -158 c29 -27 29 -65 1 -95 -27 -29 -65 -29 -95
-1 -29 27 -29 65 -1 95 27 29 65 29 95 1z"/>
</g>
</svg>
